<?xml version="1.0" standalone="no"?>
<!DOCTYPE svg PUBLIC "-//W3C//DTD SVG 20010904//EN"
 "http://www.w3.org/TR/2001/REC-SVG-20010904/DTD/svg10.dtd">
<svg version="1.0" xmlns="http://www.w3.org/2000/svg"
 width="401.000000pt" height="131.000000pt" viewBox="0 0 401.000000 131.000000"
 preserveAspectRatio="xMidYMid meet">

<g transform="translate(0.000000,131.000000) scale(0.100000,-0.100000)"
fill="#FF5022" stroke="none">
<path d="M1233 1132 l-158 -139 -50 40 c-199 159 -483 144 -658 -36 -71 -71
-110 -138 -132 -222 -31 -119 -10 -269 51 -370 19 -32 34 -61 34 -66 0 -4 -70
-69 -155 -144 -85 -75 -155 -138 -155 -140 0 -1 6 -8 14 -14 12 -10 44 14 172
128 l158 139 40 -34 c140 -120 353 -151 518 -76 262 120 370 420 242 675 -14
28 -33 60 -42 70 -14 16 -14 18 0 30 9 6 82 70 162 141 117 103 144 131 135
142 -6 8 -13 14 -15 14 -2 0 -74 -62 -161 -138z m-343 -119 c70 -34 120 -78
104 -92 -164 -151 -598 -521 -604 -514 -18 17 -59 111 -69 153 -33 141 11 283
118 383 89 83 158 108 291 104 83 -3 103 -7 160 -34z m178 -171 c17 -31 36
-88 43 -125 32 -174 -65 -358 -231 -436 -48 -22 -68 -25 -165 -26 -104 0 -114
2 -176 32 -35 18 -76 44 -89 59 l-25 26 40 33 c22 19 157 137 300 264 143 126
263 230 266 230 3 1 20 -25 37 -57z"/>
<path d="M1440 648 l0 -238 45 0 45 0 0 85 0 85 43 0 42 0 45 -85 45 -85 48 0
c26 0 47 3 47 6 0 4 -21 45 -46 92 l-46 84 31 29 c70 64 69 161 -3 228 -27 26
-36 27 -218 34 l-78 2 0 -237z m230 144 c16 -13 22 -29 22 -57 0 -55 -27 -75
-103 -75 l-59 0 0 75 0 75 59 0 c42 0 65 -5 81 -18z"/>
<path d="M1870 648 l0 -238 160 0 160 0 0 40 0 40 -115 0 -115 0 0 60 0 60
105 0 105 0 0 40 0 40 -105 0 -105 0 0 60 0 60 115 0 115 0 0 35 0 35 -107 1
c-60 0 -132 2 -160 2 l-53 2 0 -237z"/>
<path d="M2253 875 c2 -5 39 -112 82 -237 l79 -228 60 0 61 0 81 238 82 237
-52 -1 -51 -2 -58 -182 c-32 -100 -62 -179 -67 -174 -4 5 -32 87 -62 183 l-54
173 -52 2 c-31 0 -51 -3 -49 -9z"/>
<path d="M3284 871 c-58 -26 -84 -63 -84 -120 0 -72 38 -104 160 -136 73 -19
100 -38 100 -70 0 -36 -35 -59 -90 -59 -52 0 -84 19 -95 55 -5 15 -16 19 -52
19 -37 0 -44 -3 -39 -16 3 -9 6 -22 6 -29 0 -26 59 -81 98 -93 135 -41 262 18
262 122 0 78 -30 106 -160 146 -72 22 -86 30 -94 53 -25 71 104 101 155 36 12
-16 24 -20 57 -17 l41 3 -18 41 c-34 76 -154 107 -247 65z"/>
<path d="M3658 882 l-28 -3 0 -235 0 -234 160 0 160 0 0 40 0 40 -115 0 -115
0 0 60 0 60 105 0 105 0 0 40 0 40 -105 0 -105 0 0 60 0 60 115 0 115 0 0 35
c0 29 -4 35 -22 36 -67 3 -247 4 -270 1z"/>
<path d="M2770 645 l0 -235 45 0 45 0 0 85 0 85 43 0 42 0 43 -85 44 -85 49 0
c27 0 49 2 49 4 0 2 -22 43 -49 92 l-49 89 34 28 c59 49 69 142 23 201 -37 47
-68 56 -199 56 l-120 0 0 -235z m236 140 c21 -28 17 -82 -6 -105 -16 -16 -33
-20 -80 -20 l-60 0 0 76 0 76 66 -4 c50 -3 70 -9 80 -23z"/>
</g>
</svg>
