<svg width="157" height="54" viewBox="0 0 157 54" fill="none" xmlns="http://www.w3.org/2000/svg">
<path d="M63.83 38.36C62.33 38.36 61.02 38.05 59.9 37.43C58.78 36.79 57.85 35.91 57.11 34.79L58.85 33.35C59.49 34.29 60.21 35.02 61.01 35.54C61.81 36.04 62.75 36.29 63.83 36.29C66.67 36.29 68.09 34.96 68.09 32.3C68.09 31.22 67.83 30.4 67.31 29.84C66.79 29.28 65.89 28.84 64.61 28.52L63.05 28.13C61.21 27.67 59.85 27 58.97 26.12C58.11 25.22 57.68 23.96 57.68 22.34C57.68 20.48 58.26 19.08 59.42 18.14C60.58 17.18 62.12 16.7 64.04 16.7C65.5 16.7 66.72 16.97 67.7 17.51C68.7 18.05 69.57 18.9 70.31 20.06L68.54 21.32C68 20.48 67.38 19.85 66.68 19.43C66 18.99 65.09 18.77 63.95 18.77C62.67 18.77 61.69 19.05 61.01 19.61C60.35 20.17 60.02 21.08 60.02 22.34C60.02 23.36 60.29 24.13 60.83 24.65C61.39 25.17 62.28 25.58 63.5 25.88L65.06 26.27C66.04 26.51 66.87 26.8 67.55 27.14C68.23 27.46 68.78 27.86 69.2 28.34C69.64 28.82 69.95 29.39 70.13 30.05C70.33 30.69 70.43 31.44 70.43 32.3C70.43 34.28 69.84 35.79 68.66 36.83C67.5 37.85 65.89 38.36 63.83 38.36ZM74.2517 38V17.06H81.9617C85.4217 17.06 87.1517 19.05 87.1517 23.03C87.1517 27.01 85.4217 29 81.9617 29H76.6517V38H74.2517ZM76.6517 26.9H81.9017C83.6817 26.9 84.5717 25.94 84.5717 24.02V22.04C84.5717 20.12 83.6817 19.16 81.9017 19.16H76.6517V26.9ZM102.417 28.46H93.0873V38H90.6873V17.06H93.0873V26.36H102.417V17.06H104.817V38H102.417V28.46ZM109.789 38V17.06H121.369V19.16H112.189V26.36H120.799V28.46H112.189V35.9H121.369V38H109.789ZM127.98 38H125.58V17.06H133.29C136.75 17.06 138.48 19.05 138.48 23.03C138.48 26.39 137.24 28.33 134.76 28.85L138.99 38H136.29L132.36 29H127.98V38ZM133.23 26.96C135.01 26.96 135.9 26 135.9 24.08V22.04C135.9 20.12 135.01 19.16 133.23 19.16H127.98V26.96H133.23ZM142.924 38V17.06H154.504V19.16H145.324V26.36H153.934V28.46H145.324V35.9H154.504V38H142.924Z" fill="white"/>
<path d="M45.5 27C45.5 37.2533 37.4056 45.5 27.5 45.5C17.5944 45.5 9.5 37.2533 9.5 27C9.5 16.7467 17.5944 8.5 27.5 8.5C37.4056 8.5 45.5 16.7467 45.5 27Z" stroke="#D9D9D9" stroke-width="3"/>
<line x1="0.646447" y1="52.6849" x2="52.6849" y2="0.646454" stroke="white"/>
</svg>
